<svg id="visual" viewBox="0 0 960 540" width="960" height="540" xmlns="http://www.w3.org/2000/svg" xmlns:xlink="http://www.w3.org/1999/xlink" version="1.1"><path d="M0 222L14.5 205C29 188 58 154 87.2 137.8C116.3 121.7 145.7 123.3 174.8 125.2C204 127 233 129 262 144.3C291 159.7 320 188.3 349 195.5C378 202.7 407 188.3 436.2 182C465.3 175.7 494.7 177.3 523.8 172.8C553 168.3 582 157.7 611 152.3C640 147 669 147 698 138.8C727 130.7 756 114.3 785.2 110.7C814.3 107 843.7 116 872.8 119.7C902 123.3 931 121.7 945.5 120.8L960 120L960 0L945.5 0C931 0 902 0 872.8 0C843.7 0 814.3 0 785.2 0C756 0 727 0 698 0C669 0 640 0 611 0C582 0 553 0 523.8 0C494.7 0 465.3 0 436.2 0C407 0 378 0 349 0C320 0 291 0 262 0C233 0 204 0 174.8 0C145.7 0 116.3 0 87.2 0C58 0 29 0 14.5 0L0 0Z" fill="#2d2f07"></path><path d="M0 330L14.5 318.3C29 306.7 58 283.3 87.2 271.7C116.3 260 145.7 260 174.8 264.5C204 269 233 278 262 288C291 298 320 309 349 310C378 311 407 302 436.2 297.5C465.3 293 494.7 293 523.8 294.7C553 296.3 582 299.7 611 303.2C640 306.7 669 310.3 698 316.7C727 323 756 332 785.2 329.3C814.3 326.7 843.7 312.3 872.8 308.8C902 305.3 931 312.7 945.5 316.3L960 320L960 118L945.5 118.8C931 119.7 902 121.3 872.8 117.7C843.7 114 814.3 105 785.2 108.7C756 112.3 727 128.7 698 136.8C669 145 640 145 611 150.3C582 155.7 553 166.3 523.8 170.8C494.7 175.3 465.3 173.7 436.2 180C407 186.3 378 200.7 349 193.5C320 186.3 291 157.7 262 142.3C233 127 204 125 174.8 123.2C145.7 121.3 116.3 119.7 87.2 135.8C58 152 29 186 14.5 203L0 220Z" fill="#353606"></path><path d="M0 417L14.5 403.5C29 390 58 363 87.2 352.2C116.3 341.3 145.7 346.7 174.8 353.8C204 361 233 370 262 374.5C291 379 320 379 349 378.2C378 377.3 407 375.7 436.2 374.8C465.3 374 494.7 374 523.8 371.2C553 368.3 582 362.7 611 367.2C640 371.7 669 386.3 698 392.7C727 399 756 397 785.2 389.7C814.3 382.3 843.7 369.7 872.8 366.2C902 362.7 931 368.3 945.5 371.2L960 374L960 318L945.5 314.3C931 310.7 902 303.3 872.8 306.8C843.7 310.3 814.3 324.7 785.2 327.3C756 330 727 321 698 314.7C669 308.3 640 304.7 611 301.2C582 297.7 553 294.3 523.8 292.7C494.7 291 465.3 291 436.2 295.5C407 300 378 309 349 308C320 307 291 296 262 286C233 276 204 267 174.8 262.5C145.7 258 116.3 258 87.2 269.7C58 281.3 29 304.7 14.5 316.3L0 328Z" fill="#3e3e05"></path><path d="M0 492L14.5 490.3C29 488.7 58 485.3 87.2 480.8C116.3 476.3 145.7 470.7 174.8 468.8C204 467 233 469 262 475.3C291 481.7 320 492.3 349 490.5C378 488.7 407 474.3 436.2 465.3C465.3 456.3 494.7 452.7 523.8 459C553 465.3 582 481.7 611 488.8C640 496 669 494 698 495.8C727 497.7 756 503.3 785.2 506.2C814.3 509 843.7 509 872.8 502.7C902 496.3 931 483.7 945.5 477.3L960 471L960 372L945.5 369.2C931 366.3 902 360.7 872.8 364.2C843.7 367.7 814.3 380.3 785.2 387.7C756 395 727 397 698 390.7C669 384.3 640 369.7 611 365.2C582 360.7 553 366.3 523.8 369.2C494.7 372 465.3 372 436.2 372.8C407 373.7 378 375.3 349 376.2C320 377 291 377 262 372.5C233 368 204 359 174.8 351.8C145.7 344.7 116.3 339.3 87.2 350.2C58 361 29 388 14.5 401.5L0 415Z" fill="#58580c"></path><path d="M0 541L14.5 541C29 541 58 541 87.2 541C116.3 541 145.7 541 174.8 541C204 541 233 541 262 541C291 541 320 541 349 541C378 541 407 541 436.2 541C465.3 541 494.7 541 523.8 541C553 541 582 541 611 541C640 541 669 541 698 541C727 541 756 541 785.2 541C814.3 541 843.7 541 872.8 541C902 541 931 541 945.5 541L960 541L960 469L945.5 475.3C931 481.7 902 494.3 872.8 500.7C843.7 507 814.3 507 785.2 504.2C756 501.3 727 495.7 698 493.8C669 492 640 494 611 486.8C582 479.7 553 463.3 523.8 457C494.7 450.7 465.3 454.3 436.2 463.3C407 472.3 378 486.7 349 488.5C320 490.3 291 479.7 262 473.3C233 467 204 465 174.8 466.8C145.7 468.7 116.3 474.3 87.2 478.8C58 483.3 29 486.7 14.5 488.3L0 490Z" fill="#747414"></path></svg>