<svg id="visual" viewBox="0 0 960 540" width="960" height="540" xmlns="http://www.w3.org/2000/svg" xmlns:xlink="http://www.w3.org/1999/xlink" version="1.1"><rect x="0" y="0" width="960" height="540" fill="#120021"></rect><path d="M0 334L22.8 333.8C45.7 333.7 91.3 333.3 137 337.7C182.7 342 228.3 351 274 359.5C319.7 368 365.3 376 411.2 381C457 386 503 388 548.8 384.8C594.7 381.7 640.3 373.3 686 372.7C731.7 372 777.3 379 823 378.8C868.7 378.7 914.3 371.3 937.2 367.7L960 364L960 541L937.2 541C914.3 541 868.7 541 823 541C777.3 541 731.7 541 686 541C640.3 541 594.7 541 548.8 541C503 541 457 541 411.2 541C365.3 541 319.7 541 274 541C228.3 541 182.7 541 137 541C91.3 541 45.7 541 22.8 541L0 541Z" fill="#c62368"></path><path d="M0 358L22.8 363.3C45.7 368.7 91.3 379.3 137 390.3C182.7 401.3 228.3 412.7 274 413.3C319.7 414 365.3 404 411.2 394.5C457 385 503 376 548.8 378C594.7 380 640.3 393 686 398.2C731.7 403.3 777.3 400.7 823 402C868.7 403.3 914.3 408.7 937.2 411.3L960 414L960 541L937.2 541C914.3 541 868.7 541 823 541C777.3 541 731.7 541 686 541C640.3 541 594.7 541 548.8 541C503 541 457 541 411.2 541C365.3 541 319.7 541 274 541C228.3 541 182.7 541 137 541C91.3 541 45.7 541 22.8 541L0 541Z" fill="#342857"></path><path d="M0 407L22.8 411.8C45.7 416.7 91.3 426.3 137 426.3C182.7 426.3 228.3 416.7 274 415.2C319.7 413.7 365.3 420.3 411.2 419.7C457 419 503 411 548.8 408.2C594.7 405.3 640.3 407.7 686 417.2C731.7 426.7 777.3 443.3 823 449.8C868.7 456.3 914.3 452.7 937.2 450.8L960 449L960 541L937.2 541C914.3 541 868.7 541 823 541C777.3 541 731.7 541 686 541C640.3 541 594.7 541 548.8 541C503 541 457 541 411.2 541C365.3 541 319.7 541 274 541C228.3 541 182.7 541 137 541C91.3 541 45.7 541 22.8 541L0 541Z" fill="#001122"></path><path d="M0 440L22.8 441.7C45.7 443.3 91.3 446.7 137 447.8C182.7 449 228.3 448 274 449C319.7 450 365.3 453 411.2 455.3C457 457.7 503 459.3 548.8 462.2C594.7 465 640.3 469 686 467.3C731.7 465.7 777.3 458.3 823 452.8C868.7 447.3 914.3 443.7 937.2 441.8L960 440L960 541L937.2 541C914.3 541 868.7 541 823 541C777.3 541 731.7 541 686 541C640.3 541 594.7 541 548.8 541C503 541 457 541 411.2 541C365.3 541 319.7 541 274 541C228.3 541 182.7 541 137 541C91.3 541 45.7 541 22.8 541L0 541Z" fill="#342857"></path><path d="M0 482L22.8 485C45.7 488 91.3 494 137 496.8C182.7 499.7 228.3 499.3 274 499.8C319.7 500.3 365.3 501.7 411.2 499.8C457 498 503 493 548.8 489.5C594.7 486 640.3 484 686 485.3C731.7 486.7 777.3 491.3 823 493.2C868.7 495 914.3 494 937.2 493.5L960 493L960 541L937.2 541C914.3 541 868.7 541 823 541C777.3 541 731.7 541 686 541C640.3 541 594.7 541 548.8 541C503 541 457 541 411.2 541C365.3 541 319.7 541 274 541C228.3 541 182.7 541 137 541C91.3 541 45.7 541 22.8 541L0 541Z" fill="#c62368"></path></svg>