<svg id="visual" viewBox="0 0 960 540" width="960" height="540" xmlns="http://www.w3.org/2000/svg" xmlns:xlink="http://www.w3.org/1999/xlink" version="1.1"><g stroke-width="1" stroke-linejoin="bevel"><path d="M459 284.4L427 290.4L429 331.6Z" fill="#b6b7b9" stroke="#b6b7b9"></path><path d="M427 290.4L411 321.6L429 331.6Z" fill="#cccccc" stroke="#cccccc"></path><path d="M413 409.7L449 409.7L429 331.6Z" fill="#8a8e94" stroke="#8a8e94"></path><path d="M429 331.6L449 409.7L459 284.4Z" fill="#b6b7b9" stroke="#b6b7b9"></path><path d="M411 321.6L413 409.7L429 331.6Z" fill="#3a4250" stroke="#3a4250"></path><path d="M603 353.6L547 262.6L459 284.4Z" fill="#757a82" stroke="#757a82"></path><path d="M421 123.3L352 251.6L427 290.4Z" fill="#4d5460" stroke="#4d5460"></path><path d="M421 123.3L427 290.4L459 284.4Z" fill="#4d5460" stroke="#4d5460"></path><path d="M427 290.4L352 251.6L411 321.6Z" fill="#152131" stroke="#152131"></path><path d="M411 321.6L380 432.9L413 409.7Z" fill="#001122" stroke="#001122"></path><path d="M277 403.7L380 432.9L411 321.6Z" fill="#273140" stroke="#273140"></path><path d="M413 409.7L380 432.9L449 409.7Z" fill="#4d5460" stroke="#4d5460"></path><path d="M449 409.7L603 353.6L459 284.4Z" fill="#8a8e94" stroke="#8a8e94"></path><path d="M603 353.6L609 255.4L547 262.6Z" fill="#4d5460" stroke="#4d5460"></path><path d="M540 143.3L421 123.3L459 284.4Z" fill="#4d5460" stroke="#4d5460"></path><path d="M449 409.7L565 449.9L603 353.6Z" fill="#757a82" stroke="#757a82"></path><path d="M539 485.9L565 449.9L449 409.7Z" fill="#a0a2a6" stroke="#a0a2a6"></path><path d="M659 223.4L618 234.4L609 255.4Z" fill="#b6b7b9" stroke="#b6b7b9"></path><path d="M609 255.4L618 234.4L547 262.6Z" fill="#a0a2a6" stroke="#a0a2a6"></path><path d="M540 143.3L459 284.4L547 262.6Z" fill="#757a82" stroke="#757a82"></path><path d="M618 234.4L540 143.3L547 262.6Z" fill="#273140" stroke="#273140"></path><path d="M248 283.4L258 346.6L352 251.6Z" fill="#a0a2a6" stroke="#a0a2a6"></path><path d="M352 251.6L258 346.6L411 321.6Z" fill="#3a4250" stroke="#3a4250"></path><path d="M277 403.7L348 476.9L380 432.9Z" fill="#152131" stroke="#152131"></path><path d="M503 540L539 485.9L449 409.7Z" fill="#273140" stroke="#273140"></path><path d="M258 346.6L277 403.7L411 321.6Z" fill="#616771" stroke="#616771"></path><path d="M503 540L449 409.7L380 432.9Z" fill="#b6b7b9" stroke="#b6b7b9"></path><path d="M269 189.3L248 283.4L352 251.6Z" fill="#616771" stroke="#616771"></path><path d="M565 449.9L610 433.7L603 353.6Z" fill="#4d5460" stroke="#4d5460"></path><path d="M603 353.6L658 352.7L609 255.4Z" fill="#616771" stroke="#616771"></path><path d="M605 463.9L610 433.7L565 449.9Z" fill="#8a8e94" stroke="#8a8e94"></path><path d="M540 143.3L518 118.1L421 123.3Z" fill="#273140" stroke="#273140"></path><path d="M610 433.7L658 352.7L603 353.6Z" fill="#cccccc" stroke="#cccccc"></path><path d="M359 106.3L269 189.3L352 251.6Z" fill="#4d5460" stroke="#4d5460"></path><path d="M518 118.1L434 93.1L421 123.3Z" fill="#152131" stroke="#152131"></path><path d="M421 123.3L359 106.3L352 251.6Z" fill="#273140" stroke="#273140"></path><path d="M610 433.7L663 353.7L658 352.7Z" fill="#273140" stroke="#273140"></path><path d="M726 306.6L659 223.4L609 255.4Z" fill="#273140" stroke="#273140"></path><path d="M539 485.9L605 463.9L565 449.9Z" fill="#b6b7b9" stroke="#b6b7b9"></path><path d="M742 487.9L768 400.7L663 353.7Z" fill="#8a8e94" stroke="#8a8e94"></path><path d="M239 186.3L261 191.4L262 136.1Z" fill="#8a8e94" stroke="#8a8e94"></path><path d="M269 189.3L261 191.4L248 283.4Z" fill="#8a8e94" stroke="#8a8e94"></path><path d="M434 93.1L359 106.3L421 123.3Z" fill="#4d5460" stroke="#4d5460"></path><path d="M659 223.4L647 205.3L618 234.4Z" fill="#b6b7b9" stroke="#b6b7b9"></path><path d="M618 234.4L647 205.3L540 143.3Z" fill="#b6b7b9" stroke="#b6b7b9"></path><path d="M540 143.3L578 95.1L518 118.1Z" fill="#8a8e94" stroke="#8a8e94"></path><path d="M132 380.7L249 417.7L258 346.6Z" fill="#001122" stroke="#001122"></path><path d="M258 346.6L249 417.7L277 403.7Z" fill="#b6b7b9" stroke="#b6b7b9"></path><path d="M277 403.7L249 417.7L348 476.9Z" fill="#616771" stroke="#616771"></path><path d="M726 306.6L609 255.4L658 352.7Z" fill="#4d5460" stroke="#4d5460"></path><path d="M369 540L503 540L380 432.9Z" fill="#a0a2a6" stroke="#a0a2a6"></path><path d="M539 485.9L527 540L605 463.9Z" fill="#4d5460" stroke="#4d5460"></path><path d="M262 136.1L261 191.4L269 189.3Z" fill="#b6b7b9" stroke="#b6b7b9"></path><path d="M261 191.4L239 186.3L248 283.4Z" fill="#cccccc" stroke="#cccccc"></path><path d="M248 283.4L196 291.6L258 346.6Z" fill="#616771" stroke="#616771"></path><path d="M359 540L369 540L348 476.9Z" fill="#a0a2a6" stroke="#a0a2a6"></path><path d="M348 476.9L369 540L380 432.9Z" fill="#a0a2a6" stroke="#a0a2a6"></path><path d="M503 540L527 540L539 485.9Z" fill="#001122" stroke="#001122"></path><path d="M224 484.9L359 540L348 476.9Z" fill="#152131" stroke="#152131"></path><path d="M610 96.1L578 95.1L540 143.3Z" fill="#001122" stroke="#001122"></path><path d="M459 0L449 0L434 93.1Z" fill="#001122" stroke="#001122"></path><path d="M610 96.1L540 143.3L647 205.3Z" fill="#cccccc" stroke="#cccccc"></path><path d="M239 186.3L196 291.6L248 283.4Z" fill="#b6b7b9" stroke="#b6b7b9"></path><path d="M359 106.3L262 136.1L269 189.3Z" fill="#616771" stroke="#616771"></path><path d="M757 154.3L610 96.1L647 205.3Z" fill="#757a82" stroke="#757a82"></path><path d="M768 400.7L726 306.6L663 353.7Z" fill="#3a4250" stroke="#3a4250"></path><path d="M663 353.7L726 306.6L658 352.7Z" fill="#4d5460" stroke="#4d5460"></path><path d="M659 223.4L757 154.3L647 205.3Z" fill="#b6b7b9" stroke="#b6b7b9"></path><path d="M249 417.7L224 484.9L348 476.9Z" fill="#273140" stroke="#273140"></path><path d="M200 507.9L224 484.9L132 380.7Z" fill="#273140" stroke="#273140"></path><path d="M459 0L434 93.1L509 0Z" fill="#757a82" stroke="#757a82"></path><path d="M434 93.1L449 0L359 106.3Z" fill="#4d5460" stroke="#4d5460"></path><path d="M283 0L204 104.1L262 136.1Z" fill="#b6b7b9" stroke="#b6b7b9"></path><path d="M434 93.1L518 118.1L509 0Z" fill="#4d5460" stroke="#4d5460"></path><path d="M509 0L518 118.1L578 95.1Z" fill="#616771" stroke="#616771"></path><path d="M626 0L509 0L578 95.1Z" fill="#4d5460" stroke="#4d5460"></path><path d="M132 380.7L224 484.9L249 417.7Z" fill="#001122" stroke="#001122"></path><path d="M224 484.9L214 540L359 540Z" fill="#b6b7b9" stroke="#b6b7b9"></path><path d="M299 0L262 136.1L359 106.3Z" fill="#4d5460" stroke="#4d5460"></path><path d="M262 136.1L204 104.1L239 186.3Z" fill="#4d5460" stroke="#4d5460"></path><path d="M239 186.3L125 273.6L196 291.6Z" fill="#b6b7b9" stroke="#b6b7b9"></path><path d="M127 376.7L132 380.7L196 291.6Z" fill="#757a82" stroke="#757a82"></path><path d="M196 291.6L132 380.7L258 346.6Z" fill="#616771" stroke="#616771"></path><path d="M101 220.4L125 273.6L239 186.3Z" fill="#4d5460" stroke="#4d5460"></path><path d="M125 273.6L127 376.7L196 291.6Z" fill="#4d5460" stroke="#4d5460"></path><path d="M136 540L147 540L73 474.9Z" fill="#152131" stroke="#152131"></path><path d="M147 540L214 540L200 507.9Z" fill="#152131" stroke="#152131"></path><path d="M200 507.9L214 540L224 484.9Z" fill="#8a8e94" stroke="#8a8e94"></path><path d="M742 487.9L610 433.7L605 463.9Z" fill="#152131" stroke="#152131"></path><path d="M742 487.9L663 353.7L610 433.7Z" fill="#3a4250" stroke="#3a4250"></path><path d="M527 540L694 540L605 463.9Z" fill="#273140" stroke="#273140"></path><path d="M449 0L299 0L359 106.3Z" fill="#273140" stroke="#273140"></path><path d="M694 540L742 487.9L605 463.9Z" fill="#8a8e94" stroke="#8a8e94"></path><path d="M694 540L705 540L742 487.9Z" fill="#8a8e94" stroke="#8a8e94"></path><path d="M783 181.3L659 223.4L726 306.6Z" fill="#757a82" stroke="#757a82"></path><path d="M783 181.3L757 154.3L659 223.4Z" fill="#3a4250" stroke="#3a4250"></path><path d="M610 96.1L626 0L578 95.1Z" fill="#8a8e94" stroke="#8a8e94"></path><path d="M299 0L283 0L262 136.1Z" fill="#001122" stroke="#001122"></path><path d="M98 195.3L101 220.4L239 186.3Z" fill="#001122" stroke="#001122"></path><path d="M125 273.6L0 359.6L127 376.7Z" fill="#b6b7b9" stroke="#b6b7b9"></path><path d="M98 195.3L239 186.3L204 104.1Z" fill="#cccccc" stroke="#cccccc"></path><path d="M778 57.1L626 0L610 96.1Z" fill="#757a82" stroke="#757a82"></path><path d="M824 276.4L783 181.3L726 306.6Z" fill="#273140" stroke="#273140"></path><path d="M757 154.3L778 57.1L610 96.1Z" fill="#616771" stroke="#616771"></path><path d="M101 220.4L92 246.4L125 273.6Z" fill="#152131" stroke="#152131"></path><path d="M103 59.1L98 195.3L204 104.1Z" fill="#4d5460" stroke="#4d5460"></path><path d="M101 220.4L0 230.4L92 246.4Z" fill="#3a4250" stroke="#3a4250"></path><path d="M147 540L200 507.9L73 474.9Z" fill="#152131" stroke="#152131"></path><path d="M200 507.9L132 380.7L73 474.9Z" fill="#616771" stroke="#616771"></path><path d="M842 270.4L824 276.4L845 285.6Z" fill="#cccccc" stroke="#cccccc"></path><path d="M845 304.6L824 276.4L726 306.6Z" fill="#001122" stroke="#001122"></path><path d="M73 474.9L132 380.7L127 376.7Z" fill="#4d5460" stroke="#4d5460"></path><path d="M705 540L764 540L742 487.9Z" fill="#4d5460" stroke="#4d5460"></path><path d="M742 487.9L807 522.9L768 400.7Z" fill="#8a8e94" stroke="#8a8e94"></path><path d="M845 304.6L726 306.6L768 400.7Z" fill="#152131" stroke="#152131"></path><path d="M824 276.4L842 270.4L783 181.3Z" fill="#4d5460" stroke="#4d5460"></path><path d="M921 368.7L845 304.6L768 400.7Z" fill="#8a8e94" stroke="#8a8e94"></path><path d="M845 304.6L845 285.6L824 276.4Z" fill="#616771" stroke="#616771"></path><path d="M283 0L192 0L204 104.1Z" fill="#001122" stroke="#001122"></path><path d="M192 0L162 19.1L204 104.1Z" fill="#616771" stroke="#616771"></path><path d="M0 410.7L73 474.9L127 376.7Z" fill="#3a4250" stroke="#3a4250"></path><path d="M778 57.1L757 154.3L829 104.3Z" fill="#757a82" stroke="#757a82"></path><path d="M803 63.1L778 57.1L829 104.3Z" fill="#a0a2a6" stroke="#a0a2a6"></path><path d="M764 540L807 522.9L742 487.9Z" fill="#152131" stroke="#152131"></path><path d="M162 19.1L103 59.1L204 104.1Z" fill="#001122" stroke="#001122"></path><path d="M0 230.4L0 359.6L92 246.4Z" fill="#8a8e94" stroke="#8a8e94"></path><path d="M92 246.4L0 359.6L125 273.6Z" fill="#3a4250" stroke="#3a4250"></path><path d="M829 104.3L757 154.3L783 181.3Z" fill="#4d5460" stroke="#4d5460"></path><path d="M778 57.1L780 0L626 0Z" fill="#273140" stroke="#273140"></path><path d="M829 104.3L783 181.3L960 153.3Z" fill="#8a8e94" stroke="#8a8e94"></path><path d="M831 76.1L829 104.3L960 137.1Z" fill="#001122" stroke="#001122"></path><path d="M960 153.3L783 181.3L842 270.4Z" fill="#616771" stroke="#616771"></path><path d="M829 104.3L831 76.1L803 63.1Z" fill="#4d5460" stroke="#4d5460"></path><path d="M0 230.4L101 220.4L98 195.3Z" fill="#8a8e94" stroke="#8a8e94"></path><path d="M764 540L838 540L807 522.9Z" fill="#8a8e94" stroke="#8a8e94"></path><path d="M807 522.9L878 485.9L768 400.7Z" fill="#a0a2a6" stroke="#a0a2a6"></path><path d="M0 150.3L0 230.4L98 195.3Z" fill="#a0a2a6" stroke="#a0a2a6"></path><path d="M793 0L778 57.1L803 63.1Z" fill="#4d5460" stroke="#4d5460"></path><path d="M793 0L780 0L778 57.1Z" fill="#cccccc" stroke="#cccccc"></path><path d="M0 359.6L0 410.7L127 376.7Z" fill="#cccccc" stroke="#cccccc"></path><path d="M73 474.9L0 540L136 540Z" fill="#b6b7b9" stroke="#b6b7b9"></path><path d="M831 76.1L793 0L803 63.1Z" fill="#b6b7b9" stroke="#b6b7b9"></path><path d="M838 540L878 485.9L807 522.9Z" fill="#3a4250" stroke="#3a4250"></path><path d="M845 304.6L960 345.6L845 285.6Z" fill="#a0a2a6" stroke="#a0a2a6"></path><path d="M845 285.6L960 225.4L842 270.4Z" fill="#152131" stroke="#152131"></path><path d="M103 59.1L27 106.3L98 195.3Z" fill="#3a4250" stroke="#3a4250"></path><path d="M0 58.1L27 106.3L103 59.1Z" fill="#152131" stroke="#152131"></path><path d="M27 106.3L0 150.3L98 195.3Z" fill="#616771" stroke="#616771"></path><path d="M878 485.9L921 368.7L768 400.7Z" fill="#a0a2a6" stroke="#a0a2a6"></path><path d="M0 410.7L0 488.9L73 474.9Z" fill="#273140" stroke="#273140"></path><path d="M192 0L70 0L162 19.1Z" fill="#273140" stroke="#273140"></path><path d="M162 19.1L70 0L103 59.1Z" fill="#a0a2a6" stroke="#a0a2a6"></path><path d="M27 106.3L0 58.1L0 150.3Z" fill="#616771" stroke="#616771"></path><path d="M0 488.9L0 540L73 474.9Z" fill="#3a4250" stroke="#3a4250"></path><path d="M70 0L0 58.1L103 59.1Z" fill="#616771" stroke="#616771"></path><path d="M960 428.9L960 345.6L921 368.7Z" fill="#152131" stroke="#152131"></path><path d="M921 368.7L960 345.6L845 304.6Z" fill="#4d5460" stroke="#4d5460"></path><path d="M960 345.6L960 225.4L845 285.6Z" fill="#b6b7b9" stroke="#b6b7b9"></path><path d="M831 76.1L939 0L793 0Z" fill="#3a4250" stroke="#3a4250"></path><path d="M960 441.7L960 428.9L878 485.9Z" fill="#001122" stroke="#001122"></path><path d="M878 485.9L960 428.9L921 368.7Z" fill="#757a82" stroke="#757a82"></path><path d="M960 540L960 441.7L878 485.9Z" fill="#a0a2a6" stroke="#a0a2a6"></path><path d="M960 225.4L960 153.3L842 270.4Z" fill="#273140" stroke="#273140"></path><path d="M960 153.3L960 137.1L829 104.3Z" fill="#616771" stroke="#616771"></path><path d="M70 0L0 0L0 58.1Z" fill="#4d5460" stroke="#4d5460"></path><path d="M838 540L960 540L878 485.9Z" fill="#a0a2a6" stroke="#a0a2a6"></path><path d="M960 137.1L939 0L831 76.1Z" fill="#4d5460" stroke="#4d5460"></path><path d="M960 137.1L960 0L939 0Z" fill="#b6b7b9" stroke="#b6b7b9"></path></g></svg>